# xmcd
#
# Track frame offsets: 
#        150
#        12769
#        30419
#        48414
#        65073
#        81375
#        96774
#        108260
#        124919
#        138498
#        153960
#        167184
#        187755
#        205820
#
# Disc length: 2903 seconds
#
# Revision: 0
# Processed by: cddbd v1.5.2PL0 Copyright (c) Steve Scherf et al.
# Submitted via: ExactAudioCopy v1.0b1
#
DISCID=b50b550e
DTITLE=Bluegrass Diamonds - We'll Meet Again
DYEAR=2007
DGENRE=Bluegrass
TTITLE0=Another Tear
TTITLE1=Heaven's Door
TTITLE2=Eighteen Wheels
TTITLE3=Build a Little Playhouse
TTITLE4=Have you lost all the love you had for me?
TTITLE5=Willie Roy
TTITLE6=Down the Blue Road
TTITLE7=An old Drunkard
TTITLE8=A Tiny Broken Heart
TTITLE9=She's Walking Through My Memory
TTITLE10=Windy City Rag
TTITLE11=She's Mine
TTITLE12=I'm a Lonesome Fugitive
TTITLE13=To Prove My Love To You
EXTD=
EXTT0=
EXTT1=
EXTT2=
EXTT3=
EXTT4=
EXTT5=
EXTT6=
EXTT7=
EXTT8=
EXTT9=
EXTT10=
EXTT11=
EXTT12=
EXTT13=
PLAYORDER=
